<svg width="351" height="94" fill="none" xmlns="http://www.w3.org/2000/svg"><path fill-rule="evenodd" clip-rule="evenodd" d="M162.027.63a3 3 0 11.885 5.935l-1.346.2C122.769 12.547 88.86 17.608 51.709 30.32c-10.68 3.655-19.974 7.437-33.757 16.389-4.748 3.084-8.72 8.505-10.432 12.508-1.304 3.051-.237 6.819 1.212 9.27 1.94 3.286 5.399 6.152 9.615 8.478 4.182 2.307 8.87 3.952 12.944 4.913 10.43 2.462 36.23 4.707 52.095 5.245 26.097.884 56.296.83 82.816-.555 49.077-2.563 73.125-4.369 103.927-8.878 24.244-3.549 48.793-12.322 60.756-20.42 3.828-2.591 7.413-5.368 9.992-8.38 2.57-3 3.928-5.98 3.826-9.052-.216-6.457-5.529-10.465-9.384-13.236l-.086-.062c-6.294-4.523-16.373-9.027-27.11-11.342-15.186-3.273-27.234-5.056-42.699-6.268-41.812-3.275-85.362 2.71-126.147 13.287a3 3 0 11-1.506-5.808C178.986 5.72 223.228-.394 265.892 2.949c15.739 1.232 28.053 3.055 43.495 6.384 11.42 2.461 22.289 7.261 29.348 12.335l.085.062.2.144c3.593 2.578 11.358 8.15 11.679 17.764.171 5.117-2.144 9.511-5.264 13.154-3.11 3.632-7.229 6.768-11.187 9.447-12.962 8.774-38.47 17.76-63.25 21.388-31.088 4.55-55.364 6.368-104.484 8.933-26.72 1.394-57.094 1.448-83.331.56-15.909-.54-42.219-2.794-53.27-5.402-4.507-1.064-9.724-2.884-14.465-5.5-4.706-2.596-9.184-6.11-11.882-10.679-1.864-3.156-3.963-9.066-1.563-14.68 2.102-4.917 6.782-11.35 12.681-15.182 14.29-9.281 24.055-13.26 35.083-17.034C87.471 11.741 121.872 6.615 160.568.848l1.459-.218z" fill="#00A1B7"/></svg>