<svg width="351" height="94" viewBox="0 0 351 94" fill="none" xmlns="http://www.w3.org/2000/svg">
<path fill-rule="evenodd" clip-rule="evenodd" d="M162.027 0.630346C163.666 0.38611 165.193 1.51659 165.437 3.15534C165.681 4.7941 164.55 6.32056 162.912 6.5648L161.566 6.76544C122.769 12.5473 88.8597 17.6079 51.7095 30.3201C41.0293 33.9747 31.735 37.7569 17.9523 46.7087C13.2039 49.7927 9.23142 55.2142 7.52009 59.2173C6.21579 62.2683 7.28347 66.0355 8.73183 68.4877C10.6723 71.7731 14.1308 74.6386 18.3469 76.9649C22.5287 79.2722 27.2179 80.9169 31.2905 81.878C41.7215 84.3397 67.5215 86.5849 83.3863 87.1226C109.483 88.0072 139.682 87.9522 166.202 86.5676C215.279 84.0054 239.327 82.1991 270.129 77.6903C294.373 74.1413 318.922 65.3682 330.885 57.2704C334.713 54.679 338.298 51.9017 340.877 48.8898C343.447 45.8894 344.805 42.9101 344.703 39.8378C344.487 33.3807 339.174 29.373 335.319 26.6021L335.233 26.5404C328.939 22.0166 318.86 17.5126 308.123 15.1982C292.937 11.9248 280.889 10.1417 265.424 8.9303C223.612 5.65495 180.062 11.6403 139.277 22.2167C137.673 22.6326 136.036 21.6696 135.62 20.0658C135.204 18.462 136.167 16.8247 137.771 16.4088C178.986 5.72079 223.228 -0.393501 265.892 2.94863C281.631 4.1815 293.945 6.00426 309.387 9.33289C320.807 11.7944 331.676 16.5945 338.735 21.6683L338.82 21.7298L339.02 21.8736C342.613 24.4519 350.378 30.0246 350.699 39.6375C350.87 44.7551 348.555 49.1493 345.435 52.7924C342.325 56.4239 338.206 59.5602 334.248 62.2391C321.286 71.0128 295.778 79.9995 270.998 83.6271C239.91 88.1778 215.634 89.9951 166.514 92.5595C139.794 93.9545 109.42 94.0085 83.183 93.1192C67.2744 92.5799 40.964 90.3258 29.9124 87.7176C25.4063 86.6542 20.1885 84.8336 15.4483 82.2183C10.7424 79.6218 6.26385 76.1074 3.56563 71.539C1.70153 68.3829 -0.397219 62.4735 2.00309 56.8588C4.10505 51.942 8.78463 45.5085 14.6841 41.6769C28.974 32.3957 38.7389 28.4169 49.767 24.6432C87.4714 11.7414 121.872 6.61473 160.568 0.847872L162.027 0.630346Z" fill="#00A1B7"/>
</svg>
